<svg width="122" height="128" viewBox="0 0 122 128" fill="none" xmlns="http://www.w3.org/2000/svg">
<path fill-rule="evenodd" clip-rule="evenodd" d="M82.7585 13.1383C79.162 14.2214 75.2711 12.9572 72.9982 9.96703L68.1231 3.55363C64.5215 -1.18454 57.3948 -1.18454 53.7932 3.55362L48.9181 9.96703C46.6451 12.9572 42.7542 14.2214 39.1578 13.1383L31.4441 10.8153C25.7452 9.09902 19.9797 13.288 19.8509 19.2382L19.6766 27.2923C19.5953 31.0474 17.1906 34.3572 13.6444 35.5949L6.03839 38.2495C0.419151 40.2107 -1.78311 46.9886 1.61018 51.8781L6.20322 58.4964C8.34467 61.5822 8.34467 65.6733 6.20322 68.759L1.61018 75.3773C-1.78311 80.2669 0.419151 87.0447 6.03839 89.0059L13.6444 91.6606C17.1906 92.8982 19.5953 96.208 19.6766 99.9632L19.8509 108.017C19.9797 113.967 25.7453 118.156 31.4441 116.44L39.1578 114.117C42.7542 113.034 46.6451 114.298 48.9181 117.288L53.7932 123.702C57.3948 128.44 64.5215 128.44 68.1231 123.702L72.9982 117.288C75.2711 114.298 79.162 113.034 82.7585 114.117L90.4722 116.44C96.171 118.156 101.937 113.967 102.065 108.017L102.24 99.9632C102.321 96.208 104.726 92.8982 108.272 91.6606L115.878 89.0059C121.497 87.0447 123.699 80.2669 120.306 75.3773L115.713 68.759C113.572 65.6733 113.572 61.5822 115.713 58.4964L120.306 51.8781C123.699 46.9886 121.497 40.2107 115.878 38.2495L108.272 35.5949C104.726 34.3572 102.321 31.0474 102.24 27.2923L102.065 19.2382C101.937 13.288 96.171 9.09902 90.4722 10.8153L82.7585 13.1383Z" fill="#1E90FF"/>
<mask id="path-2-inside-1_37_120" fill="white">
<path fill-rule="evenodd" clip-rule="evenodd" d="M80.2507 20.8568C76.6542 21.9399 72.7633 20.6757 70.4904 17.6855L68.1232 14.5713C64.5215 9.83317 57.3949 9.83318 53.7932 14.5713L51.426 17.6855C49.1531 20.6757 45.2622 21.9399 41.6657 20.8568L37.9202 19.7288C32.2214 18.0126 26.4558 22.2015 26.327 28.1517L26.2423 32.0626C26.1611 35.8177 23.7564 39.1275 20.2102 40.3652L16.5169 41.6542C10.8977 43.6154 8.69541 50.3932 12.0887 55.2828L14.3189 58.4965C16.4604 61.5822 16.4604 65.6733 14.3189 68.759L12.0887 71.9727C8.69541 76.8622 10.8977 83.6401 16.5169 85.6013L20.2102 86.8903C23.7564 88.128 26.1611 91.4378 26.2423 95.1929L26.327 99.1037C26.4558 105.054 32.2214 109.243 37.9202 107.527L41.6657 106.399C45.2622 105.316 49.1531 106.58 51.426 109.57L53.7932 112.684C57.3949 117.422 64.5215 117.422 68.1232 112.684L70.4904 109.57C72.7633 106.58 76.6542 105.316 80.2507 106.399L83.9962 107.527C89.6951 109.243 95.4606 105.054 95.5894 99.1037L95.6741 95.1929C95.7553 91.4378 98.16 88.128 101.706 86.8903L105.4 85.6013C111.019 83.6401 113.221 76.8623 109.828 71.9727L107.597 68.759C105.456 65.6733 105.456 61.5822 107.597 58.4964L109.828 55.2828C113.221 50.3932 111.019 43.6154 105.4 41.6542L101.706 40.3652C98.16 39.1275 95.7553 35.8177 95.6741 32.0626L95.5894 28.1518C95.4606 22.2015 89.6951 18.0125 83.9962 19.7288L80.2507 20.8568Z"/>
</mask>
<path d="M95.5894 28.1518L93.5899 28.195L95.5894 28.1518ZM95.6741 32.0626L97.6736 32.0193L95.6741 32.0626ZM109.828 55.2828L111.471 56.4231L109.828 55.2828ZM105.4 41.6542L104.74 43.5425L105.4 41.6542ZM107.597 68.759L105.954 69.8993L107.597 68.759ZM107.597 58.4964L105.954 57.3562L107.597 58.4964ZM105.4 85.6013L104.74 83.713L105.4 85.6013ZM95.6741 95.1929L97.6736 95.2362L95.6741 95.1929ZM101.706 86.8903L101.047 85.002L101.706 86.8903ZM70.4904 109.57L68.8982 108.36L70.4904 109.57ZM80.2507 106.399L79.6739 108.314L80.2507 106.399ZM53.7932 112.684L55.3854 111.474L53.7932 112.684ZM68.1232 112.684L66.531 111.474L68.1232 112.684ZM41.6657 106.399L42.2425 108.314L41.6657 106.399ZM37.9202 107.527L38.4969 109.442L37.9202 107.527ZM20.2102 86.8903L19.5511 88.7786L20.2102 86.8903ZM26.2423 95.1929L24.2428 95.2362L26.2423 95.1929ZM12.0887 71.9727L10.4456 70.8324L12.0887 71.9727ZM14.3189 58.4965L12.6759 59.6367L14.3189 58.4965ZM14.3189 68.759L12.6759 67.6187L14.3189 68.759ZM16.5169 41.6542L15.8579 39.7659L16.5169 41.6542ZM12.0887 55.2828L10.4456 56.4231L12.0887 55.2828ZM20.2102 40.3652L19.5511 38.4769L20.2102 40.3652ZM70.4904 17.6855L68.8982 18.8958L70.4904 17.6855ZM80.2507 20.8568L79.6739 18.9418L80.2507 20.8568ZM66.531 15.7816L68.8982 18.8958L72.0826 16.4752L69.7154 13.361L66.531 15.7816ZM53.0182 18.8958L55.3854 15.7816L52.201 13.361L49.8338 16.4752L53.0182 18.8958ZM42.2425 18.9418L38.4969 17.8138L37.3434 21.6438L41.089 22.7719L42.2425 18.9418ZM24.3275 28.1085L24.2428 32.0193L28.2419 32.1058L28.3265 28.195L24.3275 28.1085ZM17.1759 43.5425L20.8692 42.2535L19.5511 38.4769L15.8579 39.7659L17.1759 43.5425ZM15.962 57.3562L13.7318 54.1425L10.4456 56.4231L12.6759 59.6367L15.962 57.3562ZM12.6759 67.6187L10.4456 70.8324L13.7318 73.113L15.962 69.8993L12.6759 67.6187ZM15.8579 87.4896L19.5511 88.7786L20.8692 85.002L17.1759 83.713L15.8579 87.4896ZM28.3265 99.0604L28.2419 95.1496L24.2428 95.2362L24.3275 99.147L28.3265 99.0604ZM41.089 104.484L37.3434 105.612L38.4969 109.442L42.2425 108.314L41.089 104.484ZM49.8338 110.78L52.201 113.894L55.3854 111.474L53.0182 108.36L49.8338 110.78ZM69.7154 113.894L72.0826 110.78L68.8982 108.36L66.531 111.474L69.7154 113.894ZM84.573 105.612L80.8274 104.484L79.6739 108.314L83.4195 109.442L84.573 105.612ZM93.6745 95.1496L93.5899 99.0604L97.589 99.147L97.6736 95.2362L93.6745 95.1496ZM102.365 88.7786L106.059 87.4896L104.74 83.713L101.047 85.002L102.365 88.7786ZM111.471 70.8324L109.241 67.6187L105.954 69.8993L108.185 73.113L111.471 70.8324ZM108.185 54.1425L105.954 57.3562L109.241 59.6367L111.471 56.4231L108.185 54.1425ZM101.047 42.2535L104.74 43.5425L106.059 39.7659L102.365 38.4769L101.047 42.2535ZM97.6736 32.0193L97.589 28.1085L93.5899 28.195L93.6745 32.1058L97.6736 32.0193ZM83.4195 17.8138L79.6739 18.9418L80.8274 22.7719L84.573 21.6438L83.4195 17.8138ZM97.589 28.1085C97.4316 20.8359 90.3847 15.7161 83.4195 17.8138L84.573 21.6438C89.0054 20.309 93.4897 23.567 93.5899 28.195L97.589 28.1085ZM102.365 38.4769C99.6071 37.5142 97.7368 34.9399 97.6736 32.0193L93.6745 32.1058C93.7739 36.6954 96.7129 40.7407 101.047 42.2535L102.365 38.4769ZM111.471 56.4231C115.618 50.4469 112.927 42.1629 106.059 39.7659L104.74 43.5425C109.111 45.0678 110.824 50.3395 108.185 54.1425L111.471 56.4231ZM109.241 67.6187C107.575 65.2187 107.575 62.0367 109.241 59.6367L105.954 57.3562C103.337 61.1276 103.337 66.1279 105.954 69.8993L109.241 67.6187ZM106.059 87.4896C112.927 85.0926 115.618 76.8085 111.471 70.8324L108.185 73.113C110.824 76.916 109.111 82.1876 104.74 83.713L106.059 87.4896ZM97.6736 95.2362C97.7368 92.3155 99.6071 89.7413 102.365 88.7786L101.047 85.002C96.7129 86.5147 93.7739 90.56 93.6745 95.1496L97.6736 95.2362ZM83.4195 109.442C90.3847 111.539 97.4316 106.42 97.589 99.147L93.5899 99.0604C93.4897 103.688 89.0054 106.946 84.573 105.612L83.4195 109.442ZM72.0826 110.78C73.8505 108.455 76.8767 107.471 79.6739 108.314L80.8274 104.484C76.4318 103.16 71.6762 104.705 68.8982 108.36L72.0826 110.78ZM52.201 113.894C56.603 119.686 65.3134 119.686 69.7154 113.894L66.531 111.474C63.7297 115.159 58.1867 115.159 55.3854 111.474L52.201 113.894ZM42.2425 108.314C45.0397 107.471 48.066 108.455 49.8338 110.78L53.0182 108.36C50.2402 104.705 45.4847 103.16 41.089 104.484L42.2425 108.314ZM24.3275 99.147C24.4849 106.42 31.5317 111.539 38.4969 109.442L37.3434 105.612C32.911 106.946 28.4267 103.688 28.3265 99.0604L24.3275 99.147ZM19.5511 88.7786C22.3093 89.7413 24.1796 92.3155 24.2428 95.2362L28.2419 95.1496C28.1425 90.5601 25.2035 86.5147 20.8692 85.002L19.5511 88.7786ZM10.4456 70.8324C6.29826 76.8085 8.98989 85.0926 15.8579 87.4896L17.1759 83.713C12.8054 82.1876 11.0926 76.916 13.7318 73.113L10.4456 70.8324ZM12.6759 59.6367C14.3414 62.0367 14.3414 65.2187 12.6759 67.6187L15.962 69.8993C18.5794 66.1279 18.5794 61.1276 15.962 57.3562L12.6759 59.6367ZM15.8579 39.7659C8.98989 42.1629 6.29826 50.4469 10.4456 56.4231L13.7318 54.1425C11.0926 50.3395 12.8054 45.0678 17.1759 43.5425L15.8579 39.7659ZM24.2428 32.0193C24.1796 34.9399 22.3093 37.5142 19.5511 38.4769L20.8692 42.2535C25.2035 40.7407 28.1425 36.6954 28.2419 32.1058L24.2428 32.0193ZM38.4969 17.8138C31.5317 15.7161 24.4849 20.8359 24.3275 28.1085L28.3265 28.195C28.4267 23.567 32.911 20.309 37.3434 21.6438L38.4969 17.8138ZM49.8338 16.4752C48.066 18.8009 45.0397 19.7842 42.2425 18.9418L41.089 22.7719C45.4847 24.0956 50.2402 22.5505 53.0182 18.8958L49.8338 16.4752ZM68.8982 18.8958C71.6762 22.5505 76.4318 24.0956 80.8274 22.7719L79.6739 18.9418C76.8767 19.7842 73.8505 18.8009 72.0826 16.4752L68.8982 18.8958ZM69.7154 13.361C65.3134 7.56994 56.603 7.56995 52.201 13.361L55.3854 15.7816C58.1867 12.0964 63.7297 12.0964 66.531 15.7816L69.7154 13.361Z" fill="black" mask="url(#path-2-inside-1_37_120)"/>
<rect x="10" y="43" width="103" height="39" rx="7" fill="#1E90FF"/>
<path d="M19.6406 57.5938C19.8073 57.3854 19.9583 57.1719 20.0938 56.9531C20.2292 56.724 20.2969 56.4635 20.2969 56.1719C20.2969 55.8802 20.2448 55.625 20.1406 55.4062C20.0365 55.1771 19.8906 54.9792 19.7031 54.8125C19.2969 54.4479 18.7812 54.2656 18.1562 54.2656C17.5312 54.2656 17.0365 54.4479 16.6719 54.8125C16.3177 55.1667 16.1406 55.6042 16.1406 56.125V68.8125C16.1406 69.3438 16.3125 69.7552 16.6562 70.0469C17.0104 70.3281 17.4479 70.4688 17.9688 70.4688C18.5 70.4688 18.9427 70.3281 19.2969 70.0469C19.651 69.7552 19.8281 69.3438 19.8281 68.8125V67.7969C19.8281 67.276 19.9583 66.8854 20.2188 66.625C20.6667 66.1771 21.0833 65.9531 21.4688 65.9531C21.8542 65.9531 22.1615 66 22.3906 66.0938C22.6198 66.1875 22.8177 66.3177 22.9844 66.4844C23.349 66.849 23.5312 67.2865 23.5312 67.7969V68.7188C23.5312 70.8958 22.4688 72.3125 20.3438 72.9688C19.6562 73.1875 18.8698 73.2969 17.9844 73.2969C17.1094 73.2969 16.3281 73.1927 15.6406 72.9844C14.9531 72.7656 14.375 72.4583 13.9062 72.0625C12.9271 71.2292 12.4375 70.099 12.4375 68.6719V56.0469C12.4375 54.6406 12.9167 53.5312 13.875 52.7188C14.875 51.875 16.2448 51.4531 17.9844 51.4531C19.776 51.4531 21.1771 51.875 22.1875 52.7188C23.1875 53.5417 23.6875 54.6562 23.6875 56.0625C23.6875 58.2604 23.125 59.7448 22 60.5156C21.6562 60.7552 21.3073 60.875 20.9531 60.875C20.6094 60.875 20.3229 60.8281 20.0938 60.7344C19.875 60.6406 19.6823 60.5104 19.5156 60.3438C19.1615 60.0104 18.9844 59.6302 18.9844 59.2031C18.9844 58.776 19.0521 58.4531 19.1875 58.2344C19.3229 58.0052 19.474 57.7917 19.6406 57.5938Z" fill="black"/>
<path d="M32.8594 68.3438C32.8594 68.875 32.9896 69.2656 33.25 69.5156C33.7083 69.9531 34.1927 70.1719 34.7031 70.1719H34.8594C35.2448 70.1719 35.5417 70.276 35.75 70.4844C36.1042 70.8385 36.2812 71.1615 36.2812 71.4531C36.2812 71.7448 36.2448 71.9792 36.1719 72.1562C36.099 72.3229 36 72.4688 35.875 72.5938C35.5833 72.8646 35.2448 73 34.8594 73H33.7812C32.5104 73 31.4219 72.5469 30.5156 71.6406C29.6094 70.7344 29.1562 69.6458 29.1562 68.375V50.8125C29.1562 50.2917 29.2865 49.901 29.5469 49.6406C29.9948 49.1927 30.4792 48.9688 31 48.9688C31.5312 48.9688 31.9271 49.099 32.1875 49.3594C32.6354 49.8073 32.8594 50.2917 32.8594 50.8125V68.3438Z" fill="black"/>
<path d="M40.4375 57.7656C40.4375 57.1406 40.7292 56.7031 41.3125 56.4531C41.4792 56.3802 41.6615 56.3438 41.8594 56.3438H45.5469C46.8177 56.3438 47.9062 56.7969 48.8125 57.7031C49.7188 58.6094 50.1719 59.6979 50.1719 60.9688V71.4844C50.1719 72.276 49.7969 72.8333 49.0469 73.1562C48.8177 73.2604 48.5677 73.3125 48.2969 73.3125C48.026 73.3125 47.7917 73.2656 47.5938 73.1719C47.4062 73.0885 47.2448 72.9896 47.1094 72.875C46.9948 72.7708 46.8802 72.625 46.7656 72.4375C46.651 72.2396 46.5625 72.0938 46.5 72C46.4375 71.9062 46.3385 71.8594 46.2031 71.8594C46.0677 71.8594 45.9583 71.9062 45.875 72L45.625 72.2656C44.9271 72.9635 44.1094 73.3125 43.1719 73.3125C42.0573 73.3125 41.0938 72.8542 40.2812 71.9375C39.4688 71.0312 39.0625 69.9479 39.0625 68.6875V66.5312C39.0625 65.2604 39.5156 64.1719 40.4219 63.2656C41.3177 62.3698 42.4062 61.9219 43.6875 61.9219H46.4688V61.0156C46.4688 60.4948 46.3385 60.1042 46.0781 59.8438C45.6198 59.3854 45.1354 59.1562 44.625 59.1562H41.8594C41.474 59.1562 41.1771 59.0573 40.9688 58.8594C40.6146 58.526 40.4375 58.1615 40.4375 57.7656ZM42.7656 68.6562C42.7656 69.1875 42.8958 69.5781 43.1562 69.8281C43.6146 70.2656 44.0365 70.4844 44.4219 70.4844C44.8073 70.4844 45.1094 70.4479 45.3281 70.375C45.5573 70.3021 45.7552 70.1979 45.9219 70.0625C46.2865 69.7708 46.4688 69.3854 46.4688 68.9062V64.7188H44.625C44.0938 64.7188 43.6979 64.849 43.4375 65.1094C42.9896 65.5573 42.7656 66.0417 42.7656 66.5625V68.6562Z" fill="black"/>
<path d="M57.1094 73C56.724 73 56.3906 72.8646 56.1094 72.5938C55.8281 72.3229 55.6875 72.0417 55.6875 71.75C55.6875 71.4583 55.724 71.2292 55.7969 71.0625C55.8802 70.8854 55.9896 70.7292 56.125 70.5938C56.4062 70.3125 56.7344 70.1719 57.1094 70.1719H60.5625C61.1979 70.1719 61.7083 69.9948 62.0938 69.6406C62.4792 69.276 62.6719 68.8281 62.6719 68.2969C62.6719 67.7656 62.526 67.3385 62.2344 67.0156C61.9427 66.6823 61.5833 66.4479 61.1562 66.3125L58.3438 65.5312C57.375 65.2396 56.6042 64.6979 56.0312 63.9062C55.4479 63.1042 55.1562 62.2552 55.1562 61.3594C55.1562 60.4635 55.2865 59.724 55.5469 59.1406C55.8177 58.5573 56.1771 58.0573 56.625 57.6406C57.5521 56.776 58.6979 56.3438 60.0625 56.3438H63.875C64.2708 56.3438 64.599 56.4844 64.8594 56.7656C65.1198 57.0365 65.25 57.3698 65.25 57.7656C65.25 58.1615 65.1198 58.4948 64.8594 58.7656C64.599 59.026 64.2708 59.1562 63.875 59.1562H60.3594C59.8281 59.1562 59.4115 59.3125 59.1094 59.625C58.8177 59.9375 58.6719 60.3073 58.6719 60.7344C58.6719 61.401 59.0417 61.901 59.7812 62.2344L62.8438 63.125C64.4896 63.6771 65.5833 64.7188 66.125 66.25C66.3021 66.7708 66.3906 67.3698 66.3906 68.0469C66.3906 68.724 66.25 69.3698 65.9688 69.9844C65.6979 70.599 65.3333 71.1302 64.875 71.5781C63.9062 72.526 62.7656 73 61.4531 73H57.1094Z" fill="black"/>
<path d="M73.1094 73C72.724 73 72.3906 72.8646 72.1094 72.5938C71.8281 72.3229 71.6875 72.0417 71.6875 71.75C71.6875 71.4583 71.724 71.2292 71.7969 71.0625C71.8802 70.8854 71.9896 70.7292 72.125 70.5938C72.4062 70.3125 72.7344 70.1719 73.1094 70.1719H76.5625C77.1979 70.1719 77.7083 69.9948 78.0938 69.6406C78.4792 69.276 78.6719 68.8281 78.6719 68.2969C78.6719 67.7656 78.526 67.3385 78.2344 67.0156C77.9427 66.6823 77.5833 66.4479 77.1562 66.3125L74.3438 65.5312C73.375 65.2396 72.6042 64.6979 72.0312 63.9062C71.4479 63.1042 71.1562 62.2552 71.1562 61.3594C71.1562 60.4635 71.2865 59.724 71.5469 59.1406C71.8177 58.5573 72.1771 58.0573 72.625 57.6406C73.5521 56.776 74.6979 56.3438 76.0625 56.3438H79.875C80.2708 56.3438 80.599 56.4844 80.8594 56.7656C81.1198 57.0365 81.25 57.3698 81.25 57.7656C81.25 58.1615 81.1198 58.4948 80.8594 58.7656C80.599 59.026 80.2708 59.1562 79.875 59.1562H76.3594C75.8281 59.1562 75.4115 59.3125 75.1094 59.625C74.8177 59.9375 74.6719 60.3073 74.6719 60.7344C74.6719 61.401 75.0417 61.901 75.7812 62.2344L78.8438 63.125C80.4896 63.6771 81.5833 64.7188 82.125 66.25C82.3021 66.7708 82.3906 67.3698 82.3906 68.0469C82.3906 68.724 82.25 69.3698 81.9688 69.9844C81.6979 70.599 81.3333 71.1302 80.875 71.5781C79.9062 72.526 78.7656 73 77.4531 73H73.1094Z" fill="black"/>
<path d="M88.0469 57.9062C88.0469 57.3958 88.1771 57 88.4375 56.7188C88.8854 56.2604 89.3802 56.0312 89.9219 56.0312C90.4427 56.0312 90.8281 56.1667 91.0781 56.4375C91.5365 56.9062 91.7656 57.3958 91.7656 57.9062V71.4844C91.7656 71.9844 91.6354 72.3646 91.375 72.625C90.9167 73.0833 90.4948 73.3125 90.1094 73.3125C89.724 73.3125 89.4167 73.2604 89.1875 73.1562C88.9583 73.0625 88.7604 72.9375 88.5938 72.7812C88.2292 72.4271 88.0469 71.9948 88.0469 71.4844V57.9062ZM89.9219 48.9688C90.4948 48.9688 90.9896 49.1771 91.4062 49.5938C91.8229 50.0104 92.0312 50.4323 92.0312 50.8594C92.0312 51.2865 91.974 51.625 91.8594 51.875C91.7448 52.125 91.5938 52.3438 91.4062 52.5312C90.9896 52.9479 90.4948 53.1562 89.9219 53.1562C89.349 53.1562 88.8542 52.9479 88.4375 52.5312C88.0208 52.1146 87.8125 51.6979 87.8125 51.2812C87.8125 50.5729 88.0208 50.0104 88.4375 49.5938C88.8542 49.1771 89.349 48.9688 89.9219 48.9688Z" fill="black"/>
<path d="M104.922 59.6719C104.474 59.1198 103.927 58.8438 103.281 58.8438C102.719 58.8438 102.302 58.9792 102.031 59.25C101.583 59.6979 101.359 60.1823 101.359 60.7031V68.3438C101.359 68.875 101.49 69.2656 101.75 69.5156C102.208 69.9531 102.693 70.1719 103.203 70.1719H107.047C107.661 70.1719 108.094 70.4688 108.344 71.0625C108.417 71.2292 108.453 71.4115 108.453 71.6094C108.453 71.7969 108.417 71.9792 108.344 72.1562C108.271 72.3229 108.172 72.4688 108.047 72.5938C107.776 72.8646 107.443 73 107.047 73H102.281C101.01 73 99.9219 72.5469 99.0156 71.6406C98.1094 70.7344 97.6562 69.6458 97.6562 68.375V60.625C97.6562 59.2812 98.1094 58.1979 99.0156 57.375C100.005 56.4792 101.401 56.0312 103.203 56.0312C105.63 56.0312 107.25 56.5938 108.062 57.7188C108.323 58.0625 108.453 58.4115 108.453 58.7656C108.453 59.1094 108.406 59.3958 108.312 59.625C108.219 59.8438 108.089 60.0365 107.922 60.2031C107.568 60.5573 107.167 60.7344 106.719 60.7344C105.99 60.7344 105.391 60.3802 104.922 59.6719Z" fill="black"/>
</svg>
