<svg width="122" height="128" viewBox="0 0 122 128" fill="none" xmlns="http://www.w3.org/2000/svg">
<path fill-rule="evenodd" clip-rule="evenodd" d="M82.7585 13.1383C79.162 14.2214 75.2711 12.9572 72.9982 9.96703L68.1231 3.55363C64.5215 -1.18454 57.3948 -1.18454 53.7932 3.55362L48.9181 9.96703C46.6451 12.9572 42.7542 14.2214 39.1578 13.1383L31.4441 10.8153C25.7452 9.09902 19.9797 13.288 19.8509 19.2382L19.6766 27.2923C19.5953 31.0474 17.1906 34.3572 13.6444 35.5949L6.03839 38.2495C0.419151 40.2107 -1.78311 46.9886 1.61018 51.8781L6.20322 58.4964C8.34467 61.5822 8.34467 65.6733 6.20322 68.759L1.61018 75.3773C-1.78311 80.2669 0.419151 87.0447 6.03839 89.0059L13.6444 91.6606C17.1906 92.8982 19.5953 96.208 19.6766 99.9632L19.8509 108.017C19.9797 113.967 25.7453 118.156 31.4441 116.44L39.1578 114.117C42.7542 113.034 46.6451 114.298 48.9181 117.288L53.7932 123.702C57.3948 128.44 64.5215 128.44 68.1231 123.702L72.9982 117.288C75.2711 114.298 79.162 113.034 82.7585 114.117L90.4722 116.44C96.171 118.156 101.937 113.967 102.065 108.017L102.24 99.9632C102.321 96.208 104.726 92.8982 108.272 91.6606L115.878 89.0059C121.497 87.0447 123.699 80.2669 120.306 75.3773L115.713 68.759C113.572 65.6733 113.572 61.5822 115.713 58.4964L120.306 51.8781C123.699 46.9886 121.497 40.2107 115.878 38.2495L108.272 35.5949C104.726 34.3572 102.321 31.0474 102.24 27.2923L102.065 19.2382C101.937 13.288 96.171 9.09902 90.4722 10.8153L82.7585 13.1383Z" fill="#50C878"/>
<mask id="path-2-inside-1_37_149" fill="white">
<path d="M53.7932 14.5713C57.3949 9.83317 64.5215 9.83317 68.1232 14.5713L81.043 31.568C82.1128 32.9753 83.5733 34.0364 85.2423 34.619L105.4 41.6542C111.019 43.6154 113.221 50.3932 109.828 55.2828L97.6554 72.8225C96.6475 74.2748 96.0896 75.9917 96.0514 77.7591L95.5894 99.1037C95.4606 105.054 89.6951 109.243 83.9962 107.527L63.5535 101.37C61.8609 100.86 60.0556 100.86 58.3629 101.37L37.9202 107.527C32.2213 109.243 26.4558 105.054 26.327 99.1037L25.865 77.7591C25.8268 75.9917 25.2689 74.2748 24.2611 72.8225L12.0887 55.2828C8.69541 50.3932 10.8977 43.6154 16.5169 41.6542L36.6741 34.619C38.3431 34.0364 39.8037 32.9753 40.8734 31.568L53.7932 14.5713Z"/>
</mask>
<path d="M36.6741 34.619L37.3332 36.5073L36.6741 34.619ZM12.0887 55.2828L10.4456 56.4231L12.0887 55.2828ZM16.5169 41.6542L15.8579 39.7659L16.5169 41.6542ZM25.865 77.7591L23.8655 77.8023L25.865 77.7591ZM37.9202 107.527L37.3434 105.612L37.9202 107.527ZM63.5535 101.37L64.1302 99.4551L63.5535 101.37ZM58.3629 101.37L58.9396 103.285L58.3629 101.37ZM95.5894 99.1037L97.589 99.147L95.5894 99.1037ZM83.9962 107.527L83.4195 109.442L83.9962 107.527ZM97.6554 72.8225L96.0123 71.6822L97.6554 72.8225ZM96.0514 77.7591L94.0518 77.7158L96.0514 77.7591ZM105.4 41.6542L104.74 43.5425L105.4 41.6542ZM109.828 55.2828L111.471 56.4231L109.828 55.2828ZM81.043 31.568L79.4508 32.7783L81.043 31.568ZM85.2423 34.619L85.9013 32.7307L85.2423 34.619ZM68.1232 14.5713L66.531 15.7816L68.1232 14.5713ZM53.7932 14.5713L52.201 13.361L53.7932 14.5713ZM66.531 15.7816L79.4508 32.7783L82.6352 30.3577L69.7154 13.361L66.531 15.7816ZM84.5832 36.5073L104.74 43.5425L106.059 39.7659L85.9013 32.7307L84.5832 36.5073ZM108.185 54.1425L96.0123 71.6822L99.2985 73.9628L111.471 56.4231L108.185 54.1425ZM94.0518 77.7158L93.5899 99.0604L97.589 99.147L98.0509 77.8023L94.0518 77.7158ZM84.573 105.612L64.1302 99.4551L62.9768 103.285L83.4195 109.442L84.573 105.612ZM57.7862 99.4551L37.3434 105.612L38.4969 109.442L58.9396 103.285L57.7862 99.4551ZM28.3265 99.0604L27.8646 77.7158L23.8655 77.8023L24.3275 99.147L28.3265 99.0604ZM25.9041 71.6822L13.7318 54.1425L10.4456 56.4231L22.618 73.9628L25.9041 71.6822ZM17.176 43.5425L37.3332 36.5073L36.0151 32.7307L15.8579 39.7659L17.176 43.5425ZM42.4656 32.7783L55.3854 15.7816L52.201 13.361L39.2812 30.3577L42.4656 32.7783ZM37.3332 36.5073C39.3731 35.7953 41.1582 34.4984 42.4656 32.7783L39.2812 30.3577C38.4492 31.4523 37.3132 32.2776 36.0151 32.7307L37.3332 36.5073ZM13.7318 54.1425C11.0926 50.3395 12.8054 45.0678 17.176 43.5425L15.8579 39.7659C8.9899 42.1629 6.29825 50.4469 10.4456 56.4231L13.7318 54.1425ZM27.8646 77.7158C27.8178 75.5557 27.136 73.4572 25.9041 71.6822L22.618 73.9628C23.4019 75.0923 23.8358 76.4277 23.8655 77.8023L27.8646 77.7158ZM37.3434 105.612C32.911 106.946 28.4267 103.688 28.3265 99.0604L24.3275 99.147C24.4849 106.42 31.5317 111.539 38.4969 109.442L37.3434 105.612ZM64.1302 99.4551C62.0614 98.8321 59.855 98.8321 57.7862 99.4551L58.9396 103.285C60.2561 102.889 61.6603 102.889 62.9768 103.285L64.1302 99.4551ZM93.5899 99.0604C93.4897 103.688 89.0054 106.946 84.573 105.612L83.4195 109.442C90.3847 111.539 97.4316 106.42 97.589 99.147L93.5899 99.0604ZM96.0123 71.6822C94.7804 73.4572 94.0986 75.5557 94.0518 77.7158L98.0509 77.8023C98.0807 76.4277 98.5146 75.0923 99.2985 73.9628L96.0123 71.6822ZM104.74 43.5425C109.111 45.0678 110.824 50.3395 108.185 54.1425L111.471 56.4231C115.618 50.4469 112.927 42.1629 106.059 39.7659L104.74 43.5425ZM79.4508 32.7783C80.7583 34.4984 82.5433 35.7953 84.5832 36.5073L85.9013 32.7307C84.6032 32.2776 83.4673 31.4523 82.6352 30.3577L79.4508 32.7783ZM69.7154 13.361C65.3134 7.56994 56.603 7.56994 52.201 13.361L55.3854 15.7816C58.1867 12.0964 63.7297 12.0964 66.531 15.7816L69.7154 13.361Z" fill="black" mask="url(#path-2-inside-1_37_149)"/>
<mask id="path-4-inside-2_37_149" fill="white">
<path d="M53.3147 111.343C56.9164 116.081 64.043 116.081 67.6447 111.343L80.5645 94.3466C81.6342 92.9392 83.0948 91.8781 84.7638 91.2956L104.921 84.2604C110.54 82.2992 112.742 75.5213 109.349 70.6318L97.1768 53.0921C96.169 51.6398 95.6111 49.9228 95.5729 48.1555L95.1109 26.8108C94.9821 20.8606 89.2166 16.6716 83.5177 18.3879L63.075 24.5444C61.3823 25.0542 59.577 25.0542 57.8844 24.5444L37.4417 18.3879C31.7428 16.6716 25.9773 20.8606 25.8485 26.8108L25.3865 48.1555C25.3483 49.9228 24.7904 51.6398 23.7825 53.0921L11.6102 70.6318C8.21689 75.5214 10.4192 82.2992 16.0384 84.2604L36.1956 91.2956C37.8646 91.8781 39.3251 92.9392 40.3949 94.3466L53.3147 111.343Z"/>
</mask>
<path d="M36.1956 91.2956L36.8547 89.4073L36.1956 91.2956ZM11.6102 70.6318L9.96709 69.4915L11.6102 70.6318ZM16.0384 84.2604L15.3793 86.1487L16.0384 84.2604ZM25.3865 48.1555L23.387 48.1122L25.3865 48.1555ZM37.4417 18.3879L36.8649 20.3029L37.4417 18.3879ZM63.075 24.5444L63.6517 26.4595L63.075 24.5444ZM57.8844 24.5444L58.4611 22.6294L57.8844 24.5444ZM95.1109 26.8108L97.1104 26.7676L95.1109 26.8108ZM83.5177 18.3879L82.941 16.4729L83.5177 18.3879ZM97.1768 53.0921L95.5338 54.2323L97.1768 53.0921ZM95.5729 48.1555L93.5733 48.1988L95.5729 48.1555ZM104.921 84.2604L104.262 82.3721L104.921 84.2604ZM109.349 70.6318L110.992 69.4915L109.349 70.6318ZM80.5645 94.3466L78.9723 93.1363L80.5645 94.3466ZM84.7638 91.2956L85.4228 93.1839L84.7638 91.2956ZM67.6447 111.343L66.0525 110.133L67.6447 111.343ZM53.3147 111.343L51.7225 112.554L53.3147 111.343ZM66.0525 110.133L78.9723 93.1363L82.1567 95.5569L69.2369 112.554L66.0525 110.133ZM84.1047 89.4073L104.262 82.3721L105.58 86.1487L85.4228 93.1839L84.1047 89.4073ZM107.706 71.7721L95.5338 54.2323L98.8199 51.9518L110.992 69.4915L107.706 71.7721ZM93.5733 48.1988L93.1114 26.8541L97.1104 26.7676L97.5724 48.1122L93.5733 48.1988ZM84.0945 20.3029L63.6517 26.4595L62.4983 22.6294L82.941 16.4729L84.0945 20.3029ZM57.3077 26.4595L36.8649 20.3029L38.0184 16.4729L58.4611 22.6294L57.3077 26.4595ZM27.848 26.8541L27.386 48.1988L23.387 48.1122L23.8489 26.7676L27.848 26.8541ZM25.4256 54.2323L13.2533 71.7721L9.96709 69.4915L22.1394 51.9518L25.4256 54.2323ZM16.6974 82.3721L36.8547 89.4073L35.5366 93.1839L15.3793 86.1487L16.6974 82.3721ZM41.9871 93.1363L54.9069 110.133L51.7225 112.554L38.8027 95.5569L41.9871 93.1363ZM36.8547 89.4073C38.8946 90.1193 40.6796 91.4162 41.9871 93.1363L38.8027 95.5569C37.9706 94.4623 36.8347 93.637 35.5366 93.1839L36.8547 89.4073ZM13.2533 71.7721C10.6141 75.5751 12.3269 80.8467 16.6974 82.3721L15.3793 86.1487C8.51139 83.7517 5.81974 75.4676 9.96709 69.4915L13.2533 71.7721ZM27.386 48.1988C27.3393 50.3589 26.6575 52.4573 25.4256 54.2323L22.1394 51.9518C22.9233 50.8222 23.3572 49.4868 23.387 48.1122L27.386 48.1988ZM36.8649 20.3029C32.4325 18.9681 27.9482 22.2261 27.848 26.8541L23.8489 26.7676C24.0063 19.495 31.0532 14.3752 38.0184 16.4729L36.8649 20.3029ZM63.6517 26.4595C61.5829 27.0825 59.3765 27.0825 57.3077 26.4595L58.4611 22.6294C59.7776 23.0259 61.1817 23.0259 62.4983 22.6294L63.6517 26.4595ZM93.1114 26.8541C93.0112 22.2261 88.5269 18.9681 84.0945 20.3029L82.941 16.4729C89.9062 14.3752 96.953 19.495 97.1104 26.7676L93.1114 26.8541ZM95.5338 54.2323C94.3019 52.4573 93.6201 50.3589 93.5733 48.1988L97.5724 48.1122C97.6021 49.4868 98.036 50.8222 98.8199 51.9518L95.5338 54.2323ZM104.262 82.3721C108.632 80.8467 110.345 75.5751 107.706 71.7721L110.992 69.4915C115.14 75.4676 112.448 83.7517 105.58 86.1487L104.262 82.3721ZM78.9723 93.1363C80.2797 91.4162 82.0648 90.1193 84.1047 89.4073L85.4228 93.1839C84.1247 93.637 82.9887 94.4623 82.1567 95.5569L78.9723 93.1363ZM69.2369 112.554C64.8349 118.345 56.1245 118.345 51.7225 112.554L54.9069 110.133C57.7082 113.818 63.2512 113.818 66.0525 110.133L69.2369 112.554Z" fill="black" mask="url(#path-4-inside-2_37_149)"/>
<rect x="10" y="46" width="101" height="36" rx="7" fill="#50C878"/>
<path d="M25.0752 54.6807C25.0752 54.3096 24.8958 54.124 24.5371 54.124H22.4033C21.859 54.124 21.4385 54.291 21.1416 54.625C20.6468 55.1816 20.3994 55.7507 20.3994 56.332V57.3896C20.3994 58.3545 19.9479 59.0225 19.0449 59.3936C18.7728 59.5049 18.4821 59.5605 18.1729 59.5605C17.876 59.5605 17.5915 59.5049 17.3193 59.3936C17.0596 59.2822 16.8307 59.1276 16.6328 58.9297C16.2122 58.5091 16.002 57.9958 16.002 57.3896V56.2764C16.002 54.7673 16.54 53.4746 17.6162 52.3984C18.6924 51.3223 19.985 50.7842 21.4941 50.7842H32.3672C32.8372 50.7842 33.2269 50.9512 33.5361 51.2852C33.8577 51.6068 34.0186 51.9408 34.0186 52.2871C34.0186 52.6335 33.9753 52.9118 33.8887 53.1221C33.8021 53.32 33.6846 53.4932 33.5361 53.6416C33.2145 53.9632 32.8249 54.124 32.3672 54.124H29.751C29.1943 54.124 28.7676 54.2786 28.4707 54.5879C27.9635 55.1322 27.71 55.7074 27.71 56.3135V62.8076H31.2725C31.7301 62.8076 32.0827 62.9251 32.3301 63.1602C32.7507 63.556 32.9609 63.9333 32.9609 64.292C32.9609 64.6383 32.9176 64.9167 32.8311 65.127C32.7445 65.3249 32.627 65.498 32.4785 65.6465C32.1445 65.9805 31.7425 66.1475 31.2725 66.1475H27.71V70.5078C27.71 72.0293 27.1781 73.3219 26.1143 74.3857C25.0381 75.4619 23.7454 76 22.2363 76H20.084C19.6139 76 19.2181 75.8392 18.8965 75.5176C18.5749 75.196 18.4141 74.8063 18.4141 74.3486C18.4141 73.8786 18.5749 73.4766 18.8965 73.1426C19.2181 72.8086 19.6139 72.6416 20.084 72.6416H21.1416C21.7477 72.6416 22.2116 72.487 22.5332 72.1777C23.0651 71.6706 23.3311 71.1016 23.3311 70.4707V66.1475H22.5146C22.057 66.1475 21.7044 66.0299 21.457 65.7949C21.0365 65.3991 20.8262 65.028 20.8262 64.6816C20.8262 64.3229 20.8695 64.0446 20.9561 63.8467C21.0426 63.6364 21.1602 63.457 21.3086 63.3086C21.6426 62.9746 22.0446 62.8076 22.5146 62.8076H23.3311V58.2617C23.3311 57.0866 23.8568 56.0042 24.9082 55.0146C25.0195 54.9157 25.0752 54.8044 25.0752 54.6807ZM45.541 55.8496C45.8503 55.8496 46.1533 55.8929 46.4502 55.9795C46.7471 56.0661 47.0254 56.2021 47.2852 56.3877C47.8789 56.8206 48.1758 57.4206 48.1758 58.1875C48.1758 58.806 48.015 59.2699 47.6934 59.5791C47.1367 60.111 46.6172 60.377 46.1348 60.377C45.5163 60.377 44.9535 60.179 44.4463 59.7832C44.0505 59.5234 43.6051 59.3936 43.1104 59.3936C42.6156 59.3936 42.2259 59.5544 41.9414 59.876C41.6569 60.1852 41.5146 60.5811 41.5146 61.0635V74.1816C41.5146 74.7754 41.36 75.2331 41.0508 75.5547C40.4941 76.099 39.987 76.3711 39.5293 76.3711C39.084 76.3711 38.7253 76.3092 38.4531 76.1855C38.1934 76.0742 37.9645 75.9196 37.7666 75.7217C37.3337 75.2887 37.1172 74.7754 37.1172 74.1816V58.0762C37.1172 57.4701 37.278 57 37.5996 56.666C38.1191 56.1217 38.6139 55.8496 39.084 55.8496C39.5664 55.8496 39.9251 55.9053 40.1602 56.0166C40.3952 56.1156 40.5931 56.2331 40.7539 56.3691C40.9766 56.5671 41.1374 56.7712 41.2363 56.9814C41.3353 57.1794 41.4157 57.3278 41.4775 57.4268C41.5518 57.5257 41.6631 57.5752 41.8115 57.5752C41.9723 57.5752 42.1022 57.5257 42.2012 57.4268L42.5352 57.1113C43.5 56.2702 44.502 55.8496 45.541 55.8496ZM62.6113 72.6416C63.0814 72.6416 63.4772 72.8086 63.7988 73.1426C64.1204 73.4766 64.2812 73.8786 64.2812 74.3486C64.2812 74.8063 64.1204 75.196 63.7988 75.5176C63.4772 75.8392 63.0814 76 62.6113 76H58.2324C56.7233 76 55.4307 75.4619 54.3545 74.3857C53.2783 73.3096 52.7402 72.0169 52.7402 70.5078V61.3975C52.7402 59.7152 53.3092 58.373 54.4473 57.3711C55.6348 56.3568 57.2676 55.8496 59.3457 55.8496C61.3991 55.8496 63.0195 56.3568 64.207 57.3711C65.3574 58.3854 65.9326 59.7399 65.9326 61.4346V66.6299C65.9326 67.2484 65.778 67.7122 65.4688 68.0215C64.9368 68.5534 64.3555 68.8193 63.7246 68.8193H57.1377V70.4707C57.1377 71.1016 57.2923 71.5654 57.6016 71.8623C58.1458 72.3818 58.721 72.6416 59.3271 72.6416H62.6113ZM61.5352 61.3975C61.5352 60.779 61.3805 60.3151 61.0713 60.0059C60.527 59.4616 59.9518 59.1895 59.3457 59.1895C58.7272 59.1895 58.2572 59.3503 57.9355 59.6719C57.4036 60.2038 57.1377 60.779 57.1377 61.3975V65.5723H61.5352V61.3975ZM74.1709 76C73.7132 76 73.3174 75.8392 72.9834 75.5176C72.6494 75.196 72.4824 74.862 72.4824 74.5156C72.4824 74.1693 72.5257 73.8971 72.6123 73.6992C72.7113 73.4889 72.8411 73.3034 73.002 73.1426C73.3359 72.8086 73.7256 72.6416 74.1709 72.6416H78.2715C79.026 72.6416 79.6322 72.4313 80.0898 72.0107C80.5475 71.5778 80.7764 71.0459 80.7764 70.415C80.7764 69.7842 80.6032 69.277 80.2568 68.8936C79.9105 68.4977 79.4837 68.2194 78.9766 68.0586L75.6367 67.1309C74.4863 66.7845 73.571 66.1413 72.8906 65.2012C72.1979 64.2487 71.8516 63.2406 71.8516 62.1768C71.8516 61.113 72.0062 60.2347 72.3154 59.542C72.637 58.8493 73.0638 58.2555 73.5957 57.7607C74.6966 56.734 76.0573 56.2207 77.6777 56.2207H82.2051C82.6751 56.2207 83.0648 56.3877 83.374 56.7217C83.6833 57.0433 83.8379 57.4391 83.8379 57.9092C83.8379 58.3792 83.6833 58.7751 83.374 59.0967C83.0648 59.4059 82.6751 59.5605 82.2051 59.5605H78.0303C77.3994 59.5605 76.9046 59.7461 76.5459 60.1172C76.1995 60.4883 76.0264 60.9274 76.0264 61.4346C76.0264 62.2262 76.4655 62.82 77.3438 63.2158L80.9805 64.2734C82.9349 64.929 84.2337 66.166 84.877 67.9844C85.0872 68.6029 85.1924 69.3141 85.1924 70.1182C85.1924 70.9222 85.0254 71.6891 84.6914 72.4189C84.3698 73.1488 83.9368 73.7796 83.3926 74.3115C82.2422 75.4372 80.8877 76 79.3291 76H74.1709ZM94.6738 75.5732C94.3646 75.8701 94.0739 76.0742 93.8018 76.1855C93.542 76.3092 93.2575 76.3711 92.9482 76.3711C92.6514 76.3711 92.3669 76.3154 92.0947 76.2041C91.8226 76.0928 91.5876 75.9382 91.3896 75.7402C90.9567 75.3073 90.7402 74.7939 90.7402 74.2002V49.6523C90.7402 49.0462 90.901 48.5885 91.2227 48.2793C91.7546 47.735 92.2493 47.4629 92.707 47.4629C93.1771 47.4629 93.542 47.5186 93.8018 47.6299C94.0739 47.7412 94.3089 47.8958 94.5068 48.0938C94.9398 48.5267 95.1562 49.0462 95.1562 49.6523V56.9814C95.1562 57.2165 95.2181 57.3773 95.3418 57.4639C95.4779 57.5381 95.6077 57.5752 95.7314 57.5752C95.8551 57.5752 95.9727 57.5195 96.084 57.4082L96.3809 57.1113C97.222 56.2702 98.193 55.8496 99.2939 55.8496C100.63 55.8496 101.737 56.3939 102.615 57.4824C103.493 58.5586 103.933 59.8451 103.933 61.3418V74.2002C103.933 75.1403 103.493 75.8021 102.615 76.1855C102.343 76.3092 102.052 76.3711 101.743 76.3711C101.446 76.3711 101.162 76.3154 100.89 76.2041C100.618 76.0928 100.382 75.9382 100.185 75.7402C99.7516 75.3073 99.5352 74.7939 99.5352 74.2002V61.3975C99.5352 60.779 99.3805 60.3151 99.0713 60.0059C98.527 59.4616 98.026 59.1895 97.5684 59.1895C97.123 59.1895 96.7705 59.2389 96.5107 59.3379C96.251 59.4245 96.0221 59.5544 95.8242 59.7275C95.3789 60.0986 95.1562 60.5811 95.1562 61.1748V74.2002C95.1562 74.8063 94.9954 75.264 94.6738 75.5732Z" fill="black"/>
</svg>
