<svg width="122" height="128" viewBox="0 0 122 128" fill="none" xmlns="http://www.w3.org/2000/svg">
<path fill-rule="evenodd" clip-rule="evenodd" d="M82.7585 13.1383C79.162 14.2214 75.2711 12.9572 72.9982 9.96703L68.1231 3.55362C64.5215 -1.18454 57.3948 -1.18454 53.7932 3.55362L48.9181 9.96703C46.6451 12.9572 42.7542 14.2214 39.1578 13.1383L31.4441 10.8153C25.7452 9.09902 19.9797 13.288 19.8509 19.2382L19.6766 27.2923C19.5953 31.0474 17.1906 34.3572 13.6444 35.5949L6.03839 38.2495C0.419151 40.2107 -1.78311 46.9886 1.61018 51.8781L6.20322 58.4964C8.34467 61.5822 8.34467 65.6733 6.20322 68.759L1.61018 75.3773C-1.78311 80.2669 0.419151 87.0447 6.03839 89.0059L13.6444 91.6606C17.1906 92.8982 19.5953 96.208 19.6766 99.9632L19.8509 108.017C19.9797 113.967 25.7452 118.156 31.4441 116.44L39.1578 114.117C42.7542 113.034 46.6451 114.298 48.9181 117.288L53.7932 123.702C57.3948 128.44 64.5215 128.44 68.1231 123.702L72.9982 117.288C75.2711 114.298 79.162 113.034 82.7585 114.117L90.4722 116.44C96.171 118.156 101.937 113.967 102.065 108.017L102.24 99.9632C102.321 96.208 104.726 92.8982 108.272 91.6606L115.878 89.0059C121.497 87.0447 123.699 80.2669 120.306 75.3773L115.713 68.759C113.572 65.6733 113.572 61.5822 115.713 58.4964L120.306 51.8781C123.699 46.9886 121.497 40.2107 115.878 38.2495L108.272 35.5949C104.726 34.3572 102.321 31.0474 102.24 27.2923L102.065 19.2382C101.937 13.288 96.171 9.09902 90.4722 10.8153L82.7585 13.1383Z" fill="#FF5733"/>
<mask id="path-2-inside-1_37_139" fill="white">
<path d="M53.7932 112.684C57.3949 117.422 64.5215 117.422 68.1232 112.684L81.043 95.6875C82.1128 94.2801 83.5733 93.219 85.2423 92.6365L105.4 85.6013C111.019 83.6401 113.221 76.8622 109.828 71.9727L97.6554 54.433C96.6475 52.9807 96.0896 51.2637 96.0514 49.4964L95.5894 28.1517C95.4606 22.2015 89.6951 18.0125 83.9962 19.7288L63.5535 25.8853C61.8609 26.3951 60.0556 26.3951 58.3629 25.8853L37.9202 19.7288C32.2213 18.0125 26.4558 22.2015 26.327 28.1517L25.865 49.4964C25.8268 51.2637 25.2689 52.9807 24.2611 54.433L12.0887 71.9727C8.69541 76.8622 10.8977 83.6401 16.5169 85.6013L36.6741 92.6365C38.3431 93.219 39.8037 94.2801 40.8734 95.6875L53.7932 112.684Z"/>
</mask>
<path d="M36.6741 92.6365L37.9922 88.8599L36.6741 92.6365ZM40.8734 95.6875L44.0578 93.2669L40.8734 95.6875ZM12.0887 71.9727L8.80252 69.6921L12.0887 71.9727ZM16.5169 85.6013L15.1988 89.3779L16.5169 85.6013ZM25.865 49.4964L21.866 49.4099L25.865 49.4964ZM63.5535 25.8853L62.4 22.0552L63.5535 25.8853ZM58.3629 25.8853L57.2094 29.7154L58.3629 25.8853ZM95.5894 28.1517L99.5885 28.0652L95.5894 28.1517ZM97.6554 54.433L94.3692 56.7135L97.6554 54.433ZM96.0514 49.4964L92.0523 49.583L96.0514 49.4964ZM105.4 85.6013L104.081 81.8247L105.4 85.6013ZM109.828 71.9727L113.114 69.6921L109.828 71.9727ZM81.043 95.6875L77.8586 93.2669L81.043 95.6875ZM85.2423 92.6365L86.5604 96.4131L85.2423 92.6365ZM68.1232 112.684L64.9388 110.264L68.1232 112.684ZM53.7932 112.684L50.6088 115.105L53.7932 112.684ZM71.3076 115.105L84.2274 98.1081L77.8586 93.2669L64.9388 110.264L71.3076 115.105ZM86.5604 96.4131L106.718 89.3779L104.081 81.8247L83.9242 88.8599L86.5604 96.4131ZM113.114 69.6921L100.942 52.1524L94.3692 56.7135L106.542 74.2533L113.114 69.6921ZM100.05 49.4099L99.5885 28.0652L91.5904 28.2383L92.0523 49.583L100.05 49.4099ZM82.8428 15.8987L62.4 22.0552L64.707 29.7154L85.1497 23.5589L82.8428 15.8987ZM59.5164 22.0552L39.0736 15.8987L36.7667 23.5589L57.2094 29.7154L59.5164 22.0552ZM22.3279 28.0652L21.866 49.4099L29.8641 49.583L30.3261 28.2383L22.3279 28.0652ZM20.9749 52.1524L8.80252 69.6921L15.3749 74.2533L27.5472 56.7135L20.9749 52.1524ZM15.1988 89.3779L35.356 96.4131L37.9922 88.8599L17.835 81.8247L15.1988 89.3779ZM37.689 98.1081L50.6088 115.105L56.9777 110.264L44.0578 93.2669L37.689 98.1081ZM35.356 96.4131C36.2833 96.7367 37.0947 97.3262 37.689 98.1081L44.0578 93.2669C42.5126 91.2341 40.403 89.7013 37.9922 88.8599L35.356 96.4131ZM8.80252 69.6921C3.9011 76.7548 7.08214 86.545 15.1988 89.3779L17.835 81.8247C14.7132 80.7352 13.4897 76.9697 15.3749 74.2533L8.80252 69.6921ZM21.866 49.4099C21.8447 50.3917 21.5348 51.3456 20.9749 52.1524L27.5472 56.7135C29.003 54.6158 29.8088 52.1358 29.8641 49.583L21.866 49.4099ZM39.0736 15.8987C30.842 13.4197 22.5139 19.4704 22.3279 28.0652L30.3261 28.2383C30.3976 24.9326 33.6007 22.6054 36.7667 23.5589L39.0736 15.8987ZM62.4 22.0552C61.4597 22.3384 60.4567 22.3384 59.5164 22.0552L57.2094 29.7154C59.6544 30.4517 62.262 30.4517 64.707 29.7154L62.4 22.0552ZM99.5885 28.0652C99.4025 19.4704 91.0744 13.4197 82.8428 15.8987L85.1497 23.5589C88.3157 22.6054 91.5188 24.9326 91.5904 28.2383L99.5885 28.0652ZM100.942 52.1524C100.382 51.3456 100.072 50.3917 100.05 49.4099L92.0523 49.583C92.1076 52.1358 92.9134 54.6158 94.3692 56.7135L100.942 52.1524ZM106.718 89.3779C114.834 86.545 118.015 76.7548 113.114 69.6921L106.542 74.2533C108.427 76.9697 107.203 80.7352 104.081 81.8247L106.718 89.3779ZM84.2274 98.1081C84.8217 97.3262 85.6331 96.7367 86.5604 96.4131L83.9242 88.8599C81.5134 89.7013 79.4038 91.2341 77.8586 93.2669L84.2274 98.1081ZM64.9388 110.264C62.9378 112.896 58.9786 112.896 56.9777 110.264L50.6088 115.105C55.8112 121.949 66.1052 121.949 71.3076 115.105L64.9388 110.264Z" fill="black" mask="url(#path-2-inside-1_37_139)"/>
<rect x="7" y="44" width="109" height="38" rx="7" fill="#FF5733"/>
<path d="M15.4375 72.0781C15.4375 72.5469 15.6641 72.7812 16.1172 72.7812H21.9531C22.6406 72.7812 23.1641 72.5781 23.5234 72.1719C24.1641 71.4688 24.4844 70.8359 24.4844 70.2734C24.4844 69.7109 24.5547 69.2656 24.6953 68.9375C24.8359 68.6094 25.0312 68.3203 25.2812 68.0703C25.8438 67.5391 26.4141 67.2734 26.9922 67.2734C27.5703 67.2734 28.0234 67.3438 28.3516 67.4844C28.6953 67.625 28.9922 67.8203 29.2422 68.0703C29.7734 68.6016 30.0391 69.3047 30.0391 70.1797C30.0391 71.0547 29.8516 71.9141 29.4766 72.7578C29.1172 73.6016 28.625 74.3359 28 74.9609C26.6406 76.3203 25.0078 77 23.1016 77H9.29688C8.75 77 8.32812 76.8438 8.03125 76.5312C7.5 76.0156 7.23438 75.4688 7.23438 74.8906C7.23438 74.2969 7.42969 73.7969 7.82031 73.3906C8.22656 72.9688 8.67188 72.7578 9.15625 72.7578C9.64062 72.7578 10.0469 72.6953 10.375 72.5703C10.7188 72.4297 11.0156 72.2422 11.2656 72.0078C11.7969 71.5078 12.0625 70.8828 12.0625 70.1328V52.0859C12.0625 50.1641 12.75 48.5312 14.125 47.1875C15.5 45.8281 17.125 45.1484 19 45.1484H22.4219C23.3438 45.1484 23.9922 45.5781 24.3672 46.4375C24.4766 46.7031 24.5312 47.0547 24.5312 47.4922C24.5312 47.9297 24.3281 48.3516 23.9219 48.7578C23.5156 49.1641 23.0156 49.3672 22.4219 49.3672H20.4062C19.625 49.3672 19.0312 49.5625 18.625 49.9531C17.9531 50.6406 17.6172 51.375 17.6172 52.1562V67.5781C17.6172 68.9531 17.0859 70.1719 16.0234 71.2344C15.6328 71.5781 15.4375 71.8594 15.4375 72.0781ZM40.4453 49.7188C40.1641 49.9688 39.9453 50.2656 39.7891 50.6094C39.6328 50.9375 39.5547 51.3203 39.5547 51.7578C39.5547 52.1953 39.6562 52.5859 39.8594 52.9297C40.0625 53.2578 40.2891 53.5781 40.5391 53.8906C41.1953 54.6875 41.5234 55.3516 41.5234 55.8828C41.5234 56.3984 41.4531 56.8281 41.3125 57.1719C41.1719 57.5 40.9766 57.7812 40.7266 58.0156C40.1797 58.5469 39.5469 58.8125 38.8281 58.8125C38.125 58.8125 37.5078 58.6328 36.9766 58.2734C36.4609 57.9141 36.0156 57.4219 35.6406 56.7969C34.8594 55.4688 34.4688 53.7344 34.4688 51.5938C34.4688 49.4844 35.2188 47.8125 36.7188 46.5781C38.2344 45.3125 40.3359 44.6797 43.0234 44.6797C45.6328 44.6797 47.6875 45.3125 49.1875 46.5781C50.625 47.7969 51.3438 49.4609 51.3438 51.5703V70.5078C51.3438 72.6484 50.6094 74.3438 49.1406 75.5938C47.6875 76.8281 45.6484 77.4453 43.0234 77.4453C40.3984 77.4453 38.3438 76.8281 36.8594 75.5938C35.4219 74.3906 34.7031 72.7188 34.7031 70.5781V62.9375C34.7031 62.1719 34.9062 61.5938 35.3125 61.2031C35.9844 60.5156 36.6094 60.1719 37.1875 60.1719C37.7812 60.1719 38.2422 60.2422 38.5703 60.3828C38.9141 60.5234 39.2109 60.7188 39.4609 60.9688C39.9922 61.5 40.2578 62.1562 40.2578 62.9375V70.7188C40.2578 71.5156 40.5234 72.1328 41.0547 72.5703C41.5859 72.9922 42.2422 73.2031 43.0234 73.2031C43.8203 73.2031 44.4766 72.9922 44.9922 72.5703C45.5234 72.1328 45.7891 71.5156 45.7891 70.7188V51.6875C45.7891 50.9062 45.5156 50.25 44.9688 49.7188C44.4375 49.1719 43.8203 48.8984 43.1172 48.8984C42.4297 48.8984 41.8828 48.9766 41.4766 49.1328C41.0703 49.2734 40.7266 49.4688 40.4453 49.7188ZM77.5 45.7109C77.9062 45.3203 78.2734 45.0547 78.6016 44.9141C78.9453 44.7578 79.3047 44.6797 79.6797 44.6797C80.0703 44.6797 80.4297 44.7578 80.7578 44.9141C81.1016 45.0547 81.3984 45.25 81.6484 45.5C82.1953 46.0156 82.4688 46.6562 82.4688 47.4219V74.6328C82.4688 75.3984 82.2656 75.9922 81.8594 76.4141C80.8438 77.4609 79.7656 77.7422 78.625 77.2578C77.9844 76.9922 77.5 76.5234 77.1719 75.8516C76.9844 75.4609 76.7812 75.2656 76.5625 75.2656C76.3438 75.2656 76.1719 75.3281 76.0469 75.4531L75.625 75.8516C75.1875 76.2578 74.6875 76.625 74.125 76.9531C73.5625 77.2812 72.8438 77.4453 71.9688 77.4453C71.1094 77.4453 70.3047 77.2656 69.5547 76.9062C68.8047 76.5312 68.1562 76.0312 67.6094 75.4062C66.4062 74.0625 65.8047 72.4297 65.8047 70.5078V49.3672H64.7266C63.9766 49.3672 63.4062 49.5703 63.0156 49.9766C62.375 50.6641 62.0547 51.3906 62.0547 52.1562V53.4922C62.0547 54.7109 61.4844 55.5547 60.3438 56.0234C60 56.1641 59.6328 56.2344 59.2422 56.2344C58.8672 56.2344 58.5078 56.1641 58.1641 56.0234C57.8359 55.8828 57.5469 55.6875 57.2969 55.4375C56.7656 54.9375 56.5 54.2891 56.5 53.4922V52.0859C56.5 50.1797 57.1797 48.5469 58.5391 47.1875C59.8984 45.8281 61.5312 45.1484 63.4375 45.1484H68.5469C69.3125 45.1484 69.8984 45.3438 70.3047 45.7344C71.0078 46.4062 71.3594 47.125 71.3594 47.8906V70.4375C71.3594 71.2188 71.5547 71.8047 71.9453 72.1953C72.6328 72.8828 73.3516 73.2266 74.1016 73.2266C75.3359 73.2266 76.1953 72.7422 76.6797 71.7734C76.8359 71.4609 76.9141 71.1094 76.9141 70.7188V47.4219C76.9141 46.6562 77.1094 46.0859 77.5 45.7109ZM91 53.4922C91 54.7109 90.4297 55.5547 89.2891 56.0234C88.9453 56.1641 88.5781 56.2344 88.1875 56.2344C87.8125 56.2344 87.4531 56.1641 87.1094 56.0234C86.7812 55.8828 86.4922 55.6875 86.2422 55.4375C85.7109 54.9375 85.4453 54.2891 85.4453 53.4922V52.0859C85.4453 50.1797 86.125 48.5469 87.4844 47.1875C88.8438 45.8281 90.4766 45.1484 92.3828 45.1484H104.406C106.312 45.1484 107.945 45.8281 109.305 47.1875C110.648 48.5312 111.32 50.1641 111.32 52.0859V70.0625C111.32 71.9844 110.648 73.6172 109.305 74.9609C107.945 76.3203 106.312 77 104.406 77H92.1016C91.5234 77 91.0781 76.8516 90.7656 76.5547C90.2344 76.0547 89.9688 75.5859 89.9688 75.1484C89.9688 74.6953 90.0234 74.3438 90.1328 74.0938C90.2422 73.8281 90.3906 73.5938 90.5781 73.3906C91.0156 72.9688 91.5234 72.7578 92.1016 72.7578H94.7266V54.5938C94.7266 53.1094 95.3906 51.7422 96.7188 50.4922C96.8594 50.3672 96.9297 50.2344 96.9297 50.0938C96.9297 49.9375 96.875 49.7812 96.7656 49.625C96.6719 49.4531 96.4766 49.3672 96.1797 49.3672H93.5312C92.8438 49.3672 92.3125 49.5781 91.9375 50C91.3125 50.7031 91 51.4219 91 52.1562V53.4922ZM100.281 72.7578H103.07C103.805 72.7578 104.375 72.5625 104.781 72.1719C105.453 71.5312 105.789 70.8125 105.789 70.0156V52.1562C105.789 51.375 105.594 50.7891 105.203 50.3984C104.516 49.7109 103.883 49.3672 103.305 49.3672C102.727 49.3672 102.266 49.4453 101.922 49.6016C101.578 49.7422 101.281 49.9375 101.031 50.1875C100.531 50.7188 100.281 51.3672 100.281 52.1328V72.7578Z" fill="black"/>
</svg>
