<svg width="122" height="128" viewBox="0 0 122 128" fill="none" xmlns="http://www.w3.org/2000/svg">
<path fill-rule="evenodd" clip-rule="evenodd" d="M82.7585 13.1383C79.162 14.2214 75.2711 12.9572 72.9982 9.96703L68.1231 3.55363C64.5215 -1.18454 57.3948 -1.18454 53.7932 3.55362L48.9181 9.96703C46.6451 12.9572 42.7542 14.2214 39.1578 13.1383L31.4441 10.8153C25.7452 9.09902 19.9797 13.288 19.8509 19.2382L19.6766 27.2923C19.5953 31.0474 17.1906 34.3572 13.6444 35.5949L6.03839 38.2495C0.419151 40.2107 -1.78311 46.9886 1.61018 51.8781L6.20322 58.4964C8.34467 61.5822 8.34467 65.6733 6.20322 68.759L1.61018 75.3773C-1.78311 80.2669 0.419151 87.0447 6.03839 89.0059L13.6444 91.6606C17.1906 92.8982 19.5953 96.208 19.6766 99.9632L19.8509 108.017C19.9797 113.967 25.7453 118.156 31.4441 116.44L39.1578 114.117C42.7542 113.034 46.6451 114.298 48.9181 117.288L53.7932 123.702C57.3948 128.44 64.5215 128.44 68.1231 123.702L72.9982 117.288C75.2711 114.298 79.162 113.034 82.7585 114.117L90.4722 116.44C96.171 118.156 101.937 113.967 102.065 108.017L102.24 99.9632C102.321 96.208 104.726 92.8982 108.272 91.6606L115.878 89.0059C121.497 87.0447 123.699 80.2669 120.306 75.3773L115.713 68.759C113.572 65.6733 113.572 61.5822 115.713 58.4964L120.306 51.8781C123.699 46.9886 121.497 40.2107 115.878 38.2495L108.272 35.5949C104.726 34.3572 102.321 31.0474 102.24 27.2923L102.065 19.2382C101.937 13.288 96.171 9.09902 90.4722 10.8153L82.7585 13.1383Z" fill="#FFD700"/>
<mask id="path-2-inside-1_16_95" fill="white">
<path fill-rule="evenodd" clip-rule="evenodd" d="M81.885 15.8267C78.2886 16.9098 74.3977 15.6456 72.1248 12.6554L68.1232 7.39117C64.5215 2.653 57.3949 2.653 53.7932 7.39116L49.7917 12.6554C47.5187 15.6456 43.6278 16.9098 40.0314 15.8267L33.6998 13.9199C28.001 12.2037 22.2354 16.3926 22.1066 22.3429L21.9635 28.9538C21.8823 32.7089 19.4776 36.0187 15.9313 37.2564L9.68817 39.4354C4.06893 41.3966 1.86667 48.1744 5.25996 53.064L9.03003 58.4964C11.1715 61.5822 11.1715 65.6733 9.03003 68.759L5.25996 74.1915C1.86667 79.081 4.06893 85.8589 9.68817 87.8201L15.9313 89.9991C19.4776 91.2367 21.8823 94.5465 21.9635 98.3017L22.1066 104.913C22.2354 110.863 28.001 115.052 33.6998 113.336L40.0314 111.429C43.6278 110.346 47.5187 111.61 49.7917 114.6L53.7932 119.864C57.3949 124.602 64.5215 124.602 68.1232 119.864L72.1248 114.6C74.3977 111.61 78.2886 110.346 81.885 111.429L88.2166 113.336C93.9155 115.052 99.6811 110.863 99.8098 104.913L99.9529 98.3016C100.034 94.5465 102.439 91.2367 105.985 89.9991L112.228 87.8201C117.848 85.8589 120.05 79.081 116.656 74.1915L112.886 68.759C110.745 65.6733 110.745 61.5822 112.886 58.4964L116.656 53.064C120.05 48.1744 117.848 41.3966 112.228 39.4354L105.985 37.2564C102.439 36.0187 100.034 32.7089 99.9529 28.9538L99.8098 22.3429C99.6811 16.3926 93.9155 12.2037 88.2166 13.9199L81.885 15.8267Z"/>
</mask>
<path d="M99.8098 22.3429L98.8101 22.3645L99.8098 22.3429ZM88.2166 13.9199L87.9283 12.9624L88.2166 13.9199ZM105.985 37.2564L105.656 38.2005L105.985 37.2564ZM99.9529 28.9538L100.953 28.9322L99.9529 28.9538ZM116.656 53.064L117.478 53.6341L116.656 53.064ZM112.228 39.4354L112.558 38.4912L112.228 39.4354ZM112.886 68.759L113.708 68.1889L112.886 68.759ZM112.886 58.4964L113.708 59.0666L112.886 58.4964ZM112.228 87.8201L111.899 86.8759L112.228 87.8201ZM116.656 74.1915L117.478 73.6213L116.656 74.1915ZM99.9529 98.3016L98.9531 98.28L99.9529 98.3016ZM105.985 89.9991L105.656 89.0549L105.985 89.9991ZM99.8098 104.913L100.81 104.934L99.8098 104.913ZM72.1248 114.6L71.3287 113.995L72.1248 114.6ZM53.7932 119.864L52.9971 120.469L53.7932 119.864ZM40.0314 111.429L39.743 110.471L40.0314 111.429ZM33.6998 113.336L33.4114 112.378L33.6998 113.336ZM15.9313 89.9991L16.2609 89.0549L15.9313 89.9991ZM9.03003 58.4964L8.20849 59.0666L9.03003 58.4964ZM33.6998 13.9199L33.4114 14.8775L33.6998 13.9199ZM40.0314 15.8267L39.743 16.7843L40.0314 15.8267ZM53.7932 7.39116L52.9971 6.78601L53.7932 7.39116ZM67.3271 7.99632L71.3287 13.2606L72.9209 12.0503L68.9193 6.78601L67.3271 7.99632ZM50.5878 13.2606L54.5893 7.99631L52.9971 6.78601L48.9956 12.0503L50.5878 13.2606ZM40.3197 14.8692L33.9882 12.9624L33.4114 14.8775L39.743 16.7843L40.3197 14.8692ZM21.1068 22.3212L20.9638 28.9322L22.9633 28.9754L23.1064 22.3645L21.1068 22.3212ZM10.0177 40.3795L16.2609 38.2005L15.6018 36.3122L9.35865 38.4912L10.0177 40.3795ZM9.85158 57.9263L6.08151 52.4938L4.43842 53.6341L8.20849 59.0666L9.85158 57.9263ZM8.20849 68.1889L4.43842 73.6213L6.08151 74.7616L9.85158 69.3292L8.20849 68.1889ZM9.35865 88.7642L15.6018 90.9432L16.2609 89.0549L10.0177 86.8759L9.35865 88.7642ZM23.1064 104.891L22.9633 98.28L20.9638 98.3233L21.1068 104.934L23.1064 104.891ZM39.743 110.471L33.4114 112.378L33.9882 114.293L40.3197 112.386L39.743 110.471ZM48.9956 115.205L52.9971 120.469L54.5893 119.259L50.5878 113.995L48.9956 115.205ZM68.9193 120.469L72.9209 115.205L71.3287 113.995L67.3271 119.259L68.9193 120.469ZM88.505 112.378L82.1734 110.471L81.5967 112.386L87.9283 114.293L88.505 112.378ZM98.9531 98.28L98.8101 104.891L100.81 104.934L100.953 98.3233L98.9531 98.28ZM106.315 90.9432L112.558 88.7642L111.899 86.8759L105.656 89.0549L106.315 90.9432ZM117.478 73.6213L113.708 68.1889L112.065 69.3291L115.835 74.7616L117.478 73.6213ZM115.835 52.4938L112.065 57.9263L113.708 59.0666L117.478 53.6341L115.835 52.4938ZM105.656 38.2005L111.899 40.3795L112.558 38.4912L106.315 36.3123L105.656 38.2005ZM100.953 28.9322L100.81 22.3212L98.8101 22.3645L98.9531 28.9754L100.953 28.9322ZM87.9283 12.9624L81.5967 14.8692L82.1734 16.7843L88.505 14.8774L87.9283 12.9624ZM100.81 22.3212C100.667 15.7098 94.2603 11.0555 87.9283 12.9624L88.505 14.8774C93.5706 13.3519 98.6956 17.0754 98.8101 22.3645L100.81 22.3212ZM106.315 36.3123C103.162 35.2121 101.025 32.27 100.953 28.9322L98.9531 28.9754C99.0435 33.1478 101.715 36.8253 105.656 38.2005L106.315 36.3123ZM117.478 53.6341C121.248 48.2013 118.801 40.6703 112.558 38.4912L111.899 40.3795C116.894 42.1228 118.851 48.1476 115.835 52.4938L117.478 53.6341ZM113.708 68.1889C111.804 65.446 111.804 61.8095 113.708 59.0666L112.065 57.9263C109.685 61.3549 109.685 65.9006 112.065 69.3291L113.708 68.1889ZM112.558 88.7642C118.801 86.5851 121.248 79.0542 117.478 73.6213L115.835 74.7616C118.851 79.1079 116.894 85.1326 111.899 86.8759L112.558 88.7642ZM100.953 98.3233C101.025 94.9854 103.162 92.0434 106.315 90.9432L105.656 89.0549C101.715 90.4301 99.0435 94.1077 98.9531 98.28L100.953 98.3233ZM87.9283 114.293C94.2603 116.2 100.667 111.546 100.81 104.934L98.8101 104.891C98.6956 110.18 93.5706 113.904 88.505 112.378L87.9283 114.293ZM72.9209 115.205C74.9413 112.547 78.3998 111.423 81.5967 112.386L82.1734 110.471C78.1774 109.268 73.8542 110.672 71.3287 113.995L72.9209 115.205ZM52.9971 120.469C56.999 125.734 64.9175 125.734 68.9193 120.469L67.3271 119.259C64.1256 123.471 57.7908 123.471 54.5893 119.259L52.9971 120.469ZM40.3197 112.386C43.5166 111.423 46.9752 112.547 48.9956 115.205L50.5878 113.995C48.0623 110.672 43.7391 109.268 39.743 110.471L40.3197 112.386ZM21.1068 104.934C21.2499 111.546 27.6561 116.2 33.9882 114.293L33.4114 112.378C28.3458 113.904 23.2208 110.18 23.1064 104.891L21.1068 104.934ZM15.6018 90.9432C18.754 92.0434 20.8915 94.9854 20.9638 98.3233L22.9633 98.28C22.873 94.1077 20.2011 90.4301 16.2609 89.0549L15.6018 90.9432ZM4.43842 73.6213C0.668094 79.0542 3.11505 86.5851 9.35865 88.7642L10.0177 86.8759C5.02282 85.1326 3.06525 79.1079 6.08151 74.7616L4.43842 73.6213ZM8.20849 59.0666C10.112 61.8094 10.112 65.446 8.20849 68.1889L9.85158 69.3292C12.231 65.9006 12.231 61.3549 9.85158 57.9263L8.20849 59.0666ZM9.35865 38.4912C3.11505 40.6703 0.668094 48.2013 4.43842 53.6341L6.08151 52.4938C3.06525 48.1476 5.02282 42.1228 10.0177 40.3795L9.35865 38.4912ZM20.9638 28.9322C20.8915 32.27 18.754 35.2121 15.6018 36.3122L16.2609 38.2005C20.2011 36.8253 22.873 33.1478 22.9633 28.9754L20.9638 28.9322ZM33.9882 12.9624C27.6561 11.0555 21.2499 15.7098 21.1068 22.3212L23.1064 22.3645C23.2208 17.0754 28.3458 13.3519 33.4114 14.8775L33.9882 12.9624ZM48.9956 12.0503C46.9752 14.7082 43.5166 15.832 40.3197 14.8692L39.743 16.7843C43.7391 17.9877 48.0623 16.583 50.5878 13.2606L48.9956 12.0503ZM71.3287 13.2606C73.8542 16.583 78.1774 17.9877 82.1734 16.7843L81.5967 14.8692C78.3998 15.832 74.9413 14.7082 72.9209 12.0503L71.3287 13.2606ZM68.9193 6.78601C64.9175 1.52139 56.999 1.52138 52.9971 6.78601L54.5893 7.99631C57.7908 3.78461 64.1256 3.78462 67.3271 7.99632L68.9193 6.78601Z" fill="black" mask="url(#path-2-inside-1_16_95)"/>
<path d="M21.5 57.4922C21.5 58.7109 20.9297 59.5547 19.7891 60.0234C19.4453 60.1641 19.0781 60.2344 18.6875 60.2344C18.3125 60.2344 17.9531 60.1641 17.6094 60.0234C17.2812 59.8828 17 59.6875 16.7656 59.4375C16.2188 58.9062 15.9453 58.2578 15.9453 57.4922V56.0859C15.9453 54.1641 16.625 52.5312 17.9844 51.1875C19.375 49.8281 21.0078 49.1484 22.8828 49.1484H27.5703C28.4922 49.1484 29.2344 49.5312 29.7969 50.2969C30.0312 50.6719 30.25 50.8594 30.4531 50.8594C30.6719 50.8594 30.8438 50.7969 30.9688 50.6719L31.3906 50.2734C32.5312 49.2109 33.8438 48.6797 35.3281 48.6797C37.0156 48.6797 38.4688 49.3594 39.6875 50.7188C40.875 52.0625 41.4688 53.6953 41.4688 55.6172L41.4922 78.7031C41.4922 79.8906 40.9375 80.7344 39.8281 81.2344C39.4844 81.375 39.1172 81.4453 38.7266 81.4453C38.3516 81.4453 37.9922 81.3672 37.6484 81.2109C37.3047 81.0703 37.0078 80.875 36.7578 80.625C36.2109 80.1094 35.9375 79.4688 35.9375 78.7031L35.9141 55.6875C35.9141 54.9062 35.7188 54.3203 35.3281 53.9297C34.6406 53.2422 33.9219 52.8984 33.1719 52.8984C32.4219 52.8984 31.8438 53.0781 31.4375 53.4375C30.7031 54.0938 30.3359 54.7891 30.3359 55.5234V74.0625C30.3359 75.9844 29.6641 77.6172 28.3203 78.9609C26.9609 80.3203 25.3281 81 23.4219 81H21.4062C20.8125 81 20.3125 80.7969 19.9062 80.3906C19.5 79.9844 19.2969 79.4922 19.2969 78.9141C19.2969 78.3203 19.5 77.8125 19.9062 77.3906C20.3125 76.9688 20.8125 76.7578 21.4062 76.7578H22.0391C22.8047 76.7578 23.3906 76.5625 23.7969 76.1719C24.4688 75.5312 24.8047 74.8125 24.8047 74.0156V53.3672H24.1719C23.4219 53.3984 22.8594 53.6094 22.4844 54C21.8281 54.6875 21.5 55.4062 21.5 56.1562V57.4922Z" fill="#2F292B"/>
<path d="M61.1094 76.7578C61.7031 76.7578 62.2031 76.9688 62.6094 77.3906C63.0156 77.8125 63.2188 78.3203 63.2188 78.9141C63.2188 79.4922 63.0156 79.9844 62.6094 80.3906C62.2031 80.7969 61.7031 81 61.1094 81H55.5781C53.6719 81 52.0391 80.3203 50.6797 78.9609C49.3203 77.6016 48.6406 75.9688 48.6406 74.0625V62.5547C48.6406 60.4297 49.3594 58.7344 50.7969 57.4688C52.2969 56.1875 54.3594 55.5469 56.9844 55.5469C59.5781 55.5469 61.625 56.1875 63.125 57.4688C64.5781 58.75 65.3047 60.4609 65.3047 62.6016V69.1641C65.3047 69.9453 65.1094 70.5312 64.7188 70.9219C64.0469 71.5938 63.3125 71.9297 62.5156 71.9297H54.1953V74.0156C54.1953 74.8125 54.3906 75.3984 54.7812 75.7734C55.4688 76.4297 56.1953 76.7578 56.9609 76.7578H61.1094ZM59.75 62.5547C59.75 61.7734 59.5547 61.1875 59.1641 60.7969C58.4766 60.1094 57.75 59.7656 56.9844 59.7656C56.2031 59.7656 55.6094 59.9688 55.2031 60.375C54.5312 61.0469 54.1953 61.7734 54.1953 62.5547V67.8281H59.75V62.5547Z" fill="#2F292B"/>
<path d="M95.3047 58.3594C95.3047 57.5938 95.5 57 95.8906 56.5781C96.5625 55.8906 97.3047 55.5469 98.1172 55.5469C98.8984 55.5469 99.4766 55.75 99.8516 56.1562C100.523 56.8438 100.859 57.5781 100.859 58.3594V74.6016C100.859 76.6797 100.141 78.3516 98.7031 79.6172C97.2812 80.8516 95.4609 81.4688 93.2422 81.4688C90.7109 81.4688 88.8047 80.6875 87.5234 79.125C87.1172 78.7812 86.7578 78.7812 86.4453 79.125C85.1328 80.6875 83.2266 81.4688 80.7266 81.4688C78.5234 81.4688 76.7109 80.8438 75.2891 79.5938C73.8203 78.3125 73.0859 76.625 73.0859 74.5312V58.3594C73.0859 57.5938 73.2812 57 73.6719 56.5781C74.3438 55.8906 75.0859 55.5469 75.8984 55.5469C76.6797 55.5469 77.2578 55.75 77.6328 56.1562C78.3047 56.8438 78.6406 57.5781 78.6406 58.3594V74.7422C78.6406 75.5391 78.9062 76.1562 79.4375 76.5938C79.9688 77.0156 80.6172 77.2266 81.3828 77.2266C82.1641 77.2266 82.8281 77.0234 83.375 76.6172C83.9219 76.1953 84.1953 75.5703 84.1953 74.7422V58.3828C84.1953 57.6172 84.3906 57.0234 84.7812 56.6016C85.4531 55.9141 86.1953 55.5703 87.0078 55.5703C87.7891 55.5703 88.3672 55.7656 88.7422 56.1562C89.4141 56.8594 89.75 57.6016 89.75 58.3828V74.7422C89.75 75.5703 90.0156 76.1953 90.5469 76.6172C91.0938 77.0234 91.7578 77.2266 92.5391 77.2266C93.3203 77.2266 93.9766 77.0156 94.5078 76.5938C95.0391 76.1562 95.3047 75.5391 95.3047 74.7422V58.3594Z" fill="#2F292B"/>
</svg>
